<svg width="25" height="24" viewBox="0 0 25 24" fill="none" xmlns="http://www.w3.org/2000/svg">
<path fill-rule="evenodd" clip-rule="evenodd" d="M12.4988 6.81131L10.8016 5.27789C9.10432 3.74471 6.284 4.08858 4.73976 5.78906C2.80019 7.83319 2.80009 11.2928 4.8524 13.4559L12.499 20.9404L20.1452 13.4559C22.1975 11.2928 22.1976 7.83355 20.2578 5.78906C18.7136 4.08858 15.8934 3.74477 14.1961 5.27789L12.4988 6.81131ZM19.0031 12.3349C20.4713 10.7663 20.4252 8.29008 19.0971 6.89031L19.0851 6.87764L19.0733 6.86471C18.0257 5.71106 16.21 5.61505 15.2687 6.46513L12.4988 8.9676L9.72908 6.4652C8.78787 5.61512 6.97191 5.71104 5.92423 6.86471L5.91247 6.87766L5.90042 6.89036C4.5726 8.28976 4.52629 10.7663 5.99449 12.3349L12.499 18.7015L19.0031 12.3349Z" fill="#0D0D0D"/>
</svg>
